<svg width="160" height="29" viewBox="0 0 160 29" fill="none" xmlns="http://www.w3.org/2000/svg">
<path d="M11.1256 21.9775C8.18481 22.015 5.35553 20.8533 3.28959 18.76C1.15728 16.7543 -0.0357905 13.946 0.000818373 11.0189C-0.0343276 8.09205 1.15851 5.28437 3.28959 3.27783C5.34552 1.16274 8.17608 -0.0209409 11.1256 0.000933294C13.9351 -0.0365098 16.6422 1.05404 18.6411 3.0285L16.5278 5.17748C15.0805 3.7788 13.1381 3.01039 11.1256 3.04037C9.0149 3.01445 6.99026 3.876 5.54542 5.41493C4.04468 6.90378 3.21698 8.94087 3.25397 11.0545C3.23636 13.1436 4.06257 15.1513 5.54542 16.6229C8.60272 19.6697 13.5303 19.7276 16.6584 16.7535C17.5897 15.7336 18.161 14.4366 18.2849 13.061H11.1613V10.0216H21.2413C21.3403 10.6337 21.3801 11.254 21.36 11.8737C21.4867 14.4659 20.5472 16.997 18.7599 18.8787C16.771 20.9494 13.9951 22.0762 11.1256 21.9775ZM34.5626 19.9591C31.7519 22.6534 27.317 22.6534 24.5063 19.9591C23.145 18.6392 22.3998 16.8086 22.4523 14.9132C22.4013 13.018 23.1462 11.188 24.5063 9.86724C27.3195 7.17906 31.7494 7.17906 34.5626 9.86724C35.9227 11.188 36.6676 13.018 36.6166 14.9132C36.666 16.8104 35.9164 18.6412 34.5507 19.9591H34.5626ZM26.7265 17.9764C28.1787 19.5271 30.613 19.6071 32.1638 18.155C32.2252 18.0974 32.2848 18.0378 32.3424 17.9764C33.135 17.1572 33.5631 16.0526 33.5296 14.9132C33.565 13.77 33.1368 12.661 32.3424 11.8381C30.8495 10.2808 28.3768 10.2286 26.8195 11.7214C26.7797 11.7595 26.7408 11.7984 26.7028 11.8381C25.9083 12.661 25.4802 13.77 25.5155 14.9132C25.4852 16.0543 25.9177 17.1591 26.7146 17.9764H26.7265ZM50.021 19.9591C47.2103 22.6534 42.7754 22.6534 39.9647 19.9591C38.6034 18.6392 37.8582 16.8086 37.9107 14.9132C37.8597 13.018 38.6046 11.188 39.9647 9.86724C42.7754 7.17298 47.2103 7.17298 50.021 9.86724C51.3811 11.188 52.126 13.018 52.075 14.9132C52.1275 16.8086 51.3823 18.6392 50.021 19.9591ZM42.1849 17.9764C43.6371 19.5271 46.0714 19.6071 47.6222 18.155C47.6837 18.0974 47.7432 18.0378 47.8008 17.9764C48.5934 17.1572 49.0215 16.0526 48.988 14.9132C49.0234 13.77 48.5952 12.661 47.8008 11.8381C46.3079 10.2808 43.8352 10.2286 42.2779 11.7214C42.2382 11.7595 42.1993 11.7984 42.1612 11.8381C41.3667 12.661 40.9386 13.77 40.9739 14.9132C40.9436 16.0543 41.3761 17.1591 42.1731 17.9764H42.1849ZM60.1841 28.3176C58.761 28.3628 57.3655 27.9186 56.2305 27.0591C55.2227 26.3014 54.429 25.295 53.9271 24.1384L56.6341 23.0104C56.9287 23.7017 57.3896 24.3094 57.9757 24.7795C58.6031 25.2852 59.3904 25.5505 60.196 25.5275C61.2296 25.5904 62.2394 25.2003 62.9623 24.4589C63.6776 23.5961 64.0308 22.4897 63.9478 21.372V20.3509H63.8409C62.9236 21.4404 61.5467 22.0343 60.1247 21.9538C58.3225 21.9592 56.6003 21.21 55.3756 19.8879C54.0473 18.5769 53.3137 16.7792 53.3454 14.9132C53.3122 13.0364 54.0454 11.2272 55.3756 9.90286C56.5974 8.5751 58.3204 7.82126 60.1247 7.82512C60.88 7.82379 61.6261 7.99005 62.3093 8.3119C62.9004 8.57001 63.4273 8.9551 63.8528 9.43982H63.9597V8.3119H66.9041V20.9564C67.0608 22.978 66.378 24.9749 65.0163 26.4773C63.7199 27.7176 61.9772 28.3813 60.1841 28.3176ZM60.3978 19.1993C61.4242 19.2218 62.4075 18.7868 63.0811 18.012C63.8136 17.1725 64.1998 16.086 64.1615 14.9725C64.2055 13.8403 63.8195 12.7332 63.0811 11.8737C62.4085 11.0976 61.4245 10.6622 60.3978 10.6865C59.3442 10.6648 58.3321 11.0973 57.6196 11.8737C56.8342 12.7024 56.4076 13.8074 56.4323 14.9488C56.4079 16.0796 56.8352 17.1734 57.6196 17.9882C58.3288 18.7722 59.3408 19.2133 60.3978 19.1993ZM72.14 0.796408V21.5501H69.0412V0.79641L72.14 0.796408ZM80.6409 21.9775C78.7649 22.0257 76.9536 21.29 75.6425 19.9473C74.3126 18.6148 73.5873 16.7952 73.636 14.9132C73.565 13.0269 74.2636 11.1928 75.5713 9.83162C76.8045 8.53153 78.5288 7.81165 80.3204 7.84886C81.1351 7.84026 81.9431 7.99781 82.6949 8.3119C83.3722 8.58525 83.9893 8.9886 84.5115 9.49918C84.9599 9.93202 85.3581 10.4139 85.6988 10.9358C85.9743 11.3764 86.2088 11.8414 86.3993 12.3249L86.7198 13.1323L77.2216 17.0384C77.8096 18.3895 79.1688 19.239 80.6409 19.1755C82.0642 19.1794 83.3851 18.4356 84.1197 17.2165L86.4942 18.8193C85.8882 19.6863 85.1128 20.4214 84.2146 20.9802C83.1466 21.655 81.9041 22.0017 80.6409 21.9775ZM76.6754 14.6995L82.9918 12.0756C82.7972 11.6129 82.4492 11.2314 82.0063 10.9952C81.5105 10.7151 80.9492 10.5717 80.3797 10.5796C79.4135 10.6046 78.4962 11.01 77.8271 11.7075C77.0164 12.4833 76.5941 13.5803 76.6754 14.6995Z" fill="white"/>
<path d="M102.95 21.9777C97.5478 22.071 93.0928 17.7671 92.9996 12.3648C92.9973 12.2329 92.9977 12.1009 93.0007 11.9689C92.8753 6.56727 97.1526 2.08671 102.554 1.96132C102.686 1.95826 102.818 1.95787 102.95 1.96015C105.652 1.87566 108.245 3.02998 109.991 5.09457L108.281 6.75676C106.998 5.14307 105.022 4.23878 102.962 4.32283C100.987 4.27833 99.0784 5.04158 97.6786 6.43619C96.2226 7.90037 95.4436 9.90579 95.5296 11.9689C95.4436 14.0321 96.2226 16.0375 97.6786 17.5017C99.0784 18.8963 100.987 19.6595 102.962 19.615C105.261 19.6408 107.446 18.6181 108.898 16.8368L110.608 18.5465C109.713 19.6169 108.589 20.473 107.319 21.0516C105.951 21.6835 104.458 22 102.95 21.9777Z" fill="white"/>
<path d="M115.202 21.5501H112.744V2.37549H115.202V21.5501Z" fill="white"/>
<path d="M119.215 10.0099C121.896 7.34761 126.223 7.34761 128.904 10.0099C130.176 11.3528 130.859 13.1476 130.803 14.9965C130.859 16.8453 130.176 18.6401 128.904 19.9831C126.223 22.6453 121.896 22.6453 119.215 19.9831C117.943 18.6401 117.26 16.8453 117.316 14.9965C117.26 13.1476 117.943 11.3528 119.215 10.0099ZM121.044 18.4396C122.617 20.1018 125.239 20.1743 126.901 18.6014C126.957 18.549 127.011 18.495 127.063 18.4396C127.931 17.5085 128.389 16.2681 128.334 14.9965C128.389 13.7249 127.931 12.4845 127.063 11.5534C125.49 9.89112 122.868 9.81868 121.206 11.3916C121.15 11.444 121.096 11.498 121.044 11.5534C120.176 12.4845 119.718 13.7249 119.773 14.9965C119.725 16.2657 120.187 17.5015 121.056 18.4277L121.044 18.4396Z" fill="white"/>
<path d="M144.422 21.5502H142.047V19.7337H141.976C141.553 20.4236 140.955 20.989 140.242 21.3721C139.503 21.8007 138.663 22.026 137.808 22.0251C136.403 22.1213 135.03 21.5704 134.08 20.5291C133.181 19.3916 132.729 17.9641 132.81 16.5161V8.44263H135.268V16.065C135.268 18.5108 136.348 19.7337 138.509 19.7337C139.483 19.764 140.412 19.3218 141.002 18.5464C141.639 17.7391 141.979 16.737 141.964 15.7088V8.44263H144.422V21.5502Z" fill="white"/>
<path d="M152.767 21.9775C151.08 21.9831 149.475 21.2499 148.374 19.971C147.143 18.6115 146.484 16.8296 146.534 14.9963C146.484 13.163 147.143 11.3811 148.374 10.0216C149.475 8.74264 151.08 8.00947 152.767 8.01507C153.701 8.00033 154.624 8.2208 155.45 8.6562C156.177 9.02166 156.792 9.57516 157.231 10.259H157.338L157.231 8.4425V2.37549H159.689V21.5501H157.314V19.7335H157.208C156.768 20.4174 156.153 20.9709 155.427 21.3364C154.607 21.7679 153.693 21.9883 152.767 21.9775ZM153.171 19.7335C154.295 19.7499 155.371 19.2829 156.127 18.4513C156.962 17.5007 157.389 16.2593 157.314 14.9963C157.389 13.7333 156.962 12.4919 156.127 11.5413C154.636 9.90201 152.097 9.78226 150.458 11.2738C150.365 11.3587 150.276 11.448 150.191 11.5413C149.353 12.4856 148.926 13.7245 149.003 14.9844C148.926 16.2443 149.353 17.4832 150.191 18.4275C150.948 19.2742 152.035 19.7507 153.171 19.7335Z" fill="white"/>
</svg>
