<svg width="120" height="72" viewBox="0 0 120 72" fill="none" xmlns="http://www.w3.org/2000/svg">
<path d="M40.2962 32.6118C40.2962 33.723 40.4163 34.624 40.6265 35.2848C40.8668 35.9455 41.1671 36.6663 41.5876 37.4472C41.7378 37.6874 41.7978 37.9277 41.7978 38.1379C41.7978 38.4383 41.6176 38.7386 41.2272 39.0389L39.3351 40.3003C39.0648 40.4805 38.7945 40.5706 38.5542 40.5706C38.2539 40.5706 37.9536 40.4205 37.6532 40.1502C37.2328 39.6997 36.8724 39.2191 36.572 38.7386C36.2717 38.228 35.9714 37.6574 35.641 36.9666C33.2984 39.7297 30.3551 41.1112 26.8112 41.1112C24.2884 41.1112 22.2761 40.3904 20.8045 38.9488C19.3329 37.5072 18.582 35.5851 18.582 33.1824C18.582 30.6296 19.483 28.5573 21.3151 26.9956C23.1471 25.4338 25.5798 24.6529 28.6732 24.6529C29.6944 24.6529 30.7455 24.743 31.8568 24.8932C32.968 25.0434 34.1093 25.2836 35.3106 25.5539V23.3615C35.3106 21.079 34.8301 19.4872 33.899 18.5562C32.938 17.6251 31.3162 17.1746 29.0036 17.1746C27.9524 17.1746 26.8712 17.2948 25.76 17.5651C24.6488 17.8354 23.5676 18.1657 22.5164 18.5862C22.0359 18.7964 21.6755 18.9166 21.4652 18.9766C21.255 19.0367 21.1048 19.0667 20.9847 19.0667C20.5642 19.0667 20.354 18.7664 20.354 18.1357V16.6641C20.354 16.1835 20.4141 15.8231 20.5642 15.6129C20.7144 15.4027 20.9847 15.1924 21.4052 14.9822C22.4563 14.4416 23.7177 13.9911 25.1894 13.6307C26.661 13.2403 28.2227 13.0601 29.8746 13.0601C33.4485 13.0601 36.0614 13.871 37.7433 15.4928C39.3952 17.1146 40.2361 19.5773 40.2361 22.881V32.6118H40.2962ZM28.1026 37.1769C29.0937 37.1769 30.1148 36.9967 31.196 36.6363C32.2772 36.2759 33.2383 35.6151 34.0492 34.7141C34.5297 34.1435 34.8901 33.5128 35.0703 32.792C35.2505 32.0712 35.3707 31.2002 35.3707 30.1791V28.9177C34.4997 28.7075 33.5687 28.5273 32.6076 28.4071C31.6465 28.287 30.7155 28.2269 29.7845 28.2269C27.7722 28.2269 26.3006 28.6174 25.3095 29.4283C24.3184 30.2392 23.8379 31.3804 23.8379 32.8821C23.8379 34.2937 24.1983 35.3448 24.9491 36.0656C25.6699 36.8165 26.7211 37.1769 28.1026 37.1769ZM52.2194 40.4205C51.6788 40.4205 51.3184 40.3304 51.0781 40.1201C50.8379 39.9399 50.6276 39.5195 50.4474 38.9488L43.3896 15.733C43.2094 15.1324 43.1193 14.7419 43.1193 14.5317C43.1193 14.0512 43.3596 13.7809 43.8401 13.7809H46.7834C47.354 13.7809 47.7444 13.871 47.9547 14.0812C48.1949 14.2614 48.3751 14.6819 48.5553 15.2525L53.6009 35.1346L58.2861 15.2525C58.4363 14.6518 58.6165 14.2614 58.8568 14.0812C59.097 13.901 59.5175 13.7809 60.0581 13.7809H62.4608C63.0314 13.7809 63.4218 13.871 63.6621 14.0812C63.9024 14.2614 64.1126 14.6819 64.2327 15.2525L68.978 35.3749L74.1738 15.2525C74.354 14.6518 74.5642 14.2614 74.7745 14.0812C75.0147 13.901 75.4052 13.7809 75.9458 13.7809H78.7389C79.2194 13.7809 79.4897 14.0211 79.4897 14.5317C79.4897 14.6819 79.4597 14.832 79.4296 15.0122C79.3996 15.1924 79.3395 15.4327 79.2194 15.7631L71.9814 38.9789C71.8012 39.5795 71.5909 39.97 71.3507 40.1502C71.1104 40.3304 70.72 40.4505 70.2094 40.4505H67.6265C67.0559 40.4505 66.6655 40.3604 66.4252 40.1502C66.1849 39.9399 65.9747 39.5495 65.8546 38.9488L61.1994 19.5773L56.5742 38.9188C56.4241 39.5195 56.2439 39.9099 56.0036 40.1201C55.7633 40.3304 55.3429 40.4205 54.8023 40.4205H52.2194ZM90.8123 41.2314C89.2505 41.2314 87.6888 41.0512 86.1871 40.6908C84.6855 40.3304 83.5142 39.9399 82.7333 39.4894C82.2528 39.2191 81.9224 38.9188 81.8023 38.6485C81.6821 38.3782 81.6221 38.0779 81.6221 37.8076V36.2759C81.6221 35.6452 81.8623 35.3448 82.3128 35.3448C82.493 35.3448 82.6732 35.3749 82.8534 35.4349C83.0336 35.495 83.3039 35.6151 83.6043 35.7353C84.6254 36.1858 85.7366 36.5462 86.9079 36.7864C88.1093 37.0267 89.2806 37.1468 90.4819 37.1468C92.374 37.1468 93.8456 36.8165 94.8668 36.1557C95.8879 35.495 96.4285 34.5339 96.4285 33.3026C96.4285 32.4616 96.1583 31.7709 95.6176 31.2002C95.077 30.6296 94.0559 30.119 92.5843 29.6385L88.2294 28.287C86.037 27.5962 84.4152 26.5751 83.4241 25.2236C82.433 23.9021 81.9224 22.4305 81.9224 20.8687C81.9224 19.6073 82.1927 18.4961 82.7333 17.535C83.2739 16.574 83.9947 15.733 84.8957 15.0723C85.7967 14.3815 86.8178 13.871 88.0192 13.5106C89.2205 13.1502 90.4819 13 91.8034 13C92.4641 13 93.1549 13.03 93.8156 13.1201C94.5064 13.2102 95.1371 13.3304 95.7678 13.4505C96.3685 13.6007 96.9391 13.7508 97.4797 13.931C98.0203 14.1112 98.4408 14.2914 98.7411 14.4716C99.1616 14.7119 99.4619 14.9522 99.6421 15.2225C99.8223 15.4627 99.9124 15.7931 99.9124 16.2136V17.6251C99.9124 18.2558 99.6722 18.5862 99.2217 18.5862C98.9814 18.5862 98.591 18.4661 98.0804 18.2258C96.3685 17.4449 94.4464 17.0545 92.314 17.0545C90.6021 17.0545 89.2506 17.3248 88.3195 17.8954C87.3885 18.4661 86.908 19.337 86.908 20.5684C86.908 21.4093 87.2083 22.1301 87.809 22.7008C88.4096 23.2714 89.5209 23.842 91.1126 24.3526L95.3774 25.7041C97.5398 26.3949 99.1015 27.356 100.033 28.5873C100.964 29.8187 101.414 31.2303 101.414 32.792C101.414 34.0834 101.144 35.2547 100.633 36.2759C100.093 37.297 99.3718 38.198 98.4408 38.9188C97.5098 39.6696 96.3985 40.2102 95.1071 40.6007C93.7556 41.0211 92.344 41.2314 90.8123 41.2314Z" fill="white"/>
<path d="M96.4899 55.8275C86.6089 63.1257 72.253 67 59.9093 67C42.6101 67 27.0227 60.6029 15.2497 49.971C14.3186 49.1301 15.1596 47.9888 16.2708 48.6496C29.0049 56.0378 44.7124 60.5128 60.9604 60.5128C71.9226 60.5128 83.966 58.2302 95.0483 53.545C96.7002 52.7942 98.1117 54.6262 96.4899 55.8275ZM100.604 51.1423C99.3431 49.5205 92.2552 50.3615 89.0416 50.7519C88.0806 50.872 87.9304 50.0311 88.8014 49.4004C94.4477 45.436 103.728 46.5773 104.809 47.8987C105.89 49.2502 104.509 58.5306 99.223 62.9755C98.4121 63.6663 97.6312 63.3059 97.9916 62.4049C99.1929 59.4316 101.866 52.7341 100.604 51.1423Z" fill="white"/>
</svg>
