<svg width="157" height="44" viewBox="0 0 157 44" fill="none" xmlns="http://www.w3.org/2000/svg">
<path d="M66.2664 12.57L65.4252 14.9258H65.3794C65.2314 14.3711 64.9803 13.5908 64.5894 12.5956L60.0836 1.31348H55.6914V19.2538H58.5919V8.22385C58.5919 7.54505 58.5748 6.72069 58.5463 5.77954C58.5348 5.30189 58.478 4.92275 58.4634 4.6331H58.5292C58.64 5.15117 58.7771 5.66329 58.9398 6.16746L64.3329 19.2536H66.3608L71.7168 6.04628C71.8333 5.74687 71.9674 5.15926 72.0845 4.6331H72.1471C72.0813 5.93949 72.0189 7.13129 72.013 7.85446V19.2536H75.1017V1.31348H70.881L66.2664 12.57Z" fill="white"/>
<path d="M78.0156 19.2534H81.0444V6.39819H78.0156V19.2534Z" fill="white"/>
<path d="M79.5606 0.934326C79.0615 0.934326 78.625 1.10256 78.2715 1.43904C77.9121 1.77551 77.7324 2.20049 77.7324 2.69813C77.7324 3.19162 77.9121 3.60661 78.2657 3.93723C78.6192 4.26395 79.0556 4.42779 79.5603 4.42779C80.0682 4.42779 80.5047 4.26395 80.8641 3.93723C81.2176 3.60661 81.4 3.19162 81.4 2.69813C81.4 2.21634 81.2232 1.79843 80.8726 1.45196C80.5244 1.10817 80.0882 0.934326 79.5606 0.934326Z" fill="white"/>
<path d="M91.7511 6.26734C91.1941 6.14976 90.6264 6.08955 90.0571 6.08765C88.6739 6.08765 87.436 6.38559 86.381 6.97345C85.3286 7.56081 84.5128 8.39907 83.9567 9.46578C83.4034 10.5308 83.1211 11.7731 83.1211 13.1633C83.1211 14.3768 83.3978 15.4889 83.9313 16.4717C84.4702 17.4568 85.2316 18.2272 86.1957 18.7573C87.1595 19.2923 88.2689 19.5631 89.5038 19.5631C90.9414 19.5631 92.162 19.2764 93.1485 18.7117L93.1943 18.6888V15.9153L93.0661 16.008C92.6117 16.3357 92.1122 16.5956 91.5831 16.7797C91.0494 16.9679 90.5618 17.0591 90.1341 17.0591C88.9448 17.0591 87.9895 16.69 87.3019 15.9565C86.6119 15.2251 86.261 14.1942 86.261 12.901C86.261 11.5948 86.6206 10.5408 87.3506 9.76056C88.0665 8.98399 89.022 8.59168 90.1826 8.59168C91.1779 8.59168 92.1476 8.92669 93.066 9.59427L93.1943 9.68668V6.76497L93.1485 6.74205C92.8035 6.54943 92.3302 6.38998 91.7511 6.26734Z" fill="white"/>
<path d="M101.714 6.17432C100.95 6.17432 100.272 6.41863 99.6927 6.89774C99.1795 7.32125 98.8115 7.90155 98.5289 8.62155H98.4977V6.39864H95.4746V19.2539H98.498V12.6785C98.498 11.5562 98.7486 10.6409 99.2507 9.94648C99.7386 9.26061 100.4 8.91244 101.207 8.91244C101.478 8.91244 101.78 8.95827 102.114 9.048C102.442 9.13504 102.679 9.23331 102.818 9.33327L102.947 9.42446V6.37426L102.901 6.35159C102.619 6.23309 102.216 6.17432 101.714 6.17432Z" fill="white"/>
<path d="M112.335 15.9865C111.765 16.6982 110.909 17.0589 109.791 17.0589C108.682 17.0589 107.804 16.6926 107.19 15.9665C106.563 15.2351 106.249 14.194 106.249 12.8749C106.249 11.5107 106.563 10.444 107.19 9.70253C107.804 8.96376 108.67 8.59168 109.766 8.59168C110.827 8.59168 111.674 8.94815 112.279 9.65377C112.886 10.364 113.197 11.4205 113.197 12.801C113.197 14.194 112.906 15.2697 112.335 15.9865ZM109.922 6.08496C107.81 6.08496 106.127 6.70792 104.926 7.93434C103.725 9.15589 103.115 10.8546 103.115 12.9736C103.115 14.9869 103.711 16.6056 104.881 17.7862C106.05 18.9653 107.647 19.5631 109.618 19.5631C111.668 19.5631 113.325 18.9355 114.526 17.6906C115.721 16.4488 116.331 14.7721 116.331 12.701C116.331 10.6566 115.764 9.02496 114.634 7.85437C113.51 6.67915 111.925 6.08496 109.922 6.08496Z" fill="white"/>
<path d="M123.04 11.7087C122.084 11.3266 121.474 11.007 121.223 10.7648C120.98 10.5281 120.858 10.1972 120.858 9.7764C120.858 9.40165 121.007 9.10492 121.326 8.85841C121.64 8.61434 122.076 8.49195 122.623 8.49195C123.136 8.49195 123.661 8.57022 124.177 8.72992C124.691 8.88841 125.153 9.09638 125.532 9.35874L125.655 9.44286V6.64648L125.604 6.62795C125.261 6.47532 124.793 6.34707 124.234 6.2415C123.675 6.13885 123.162 6.0874 122.726 6.0874C121.28 6.0874 120.088 6.4568 119.181 7.18289C118.262 7.91411 117.795 8.87379 117.795 10.0361C117.795 10.6408 117.897 11.174 118.094 11.629C118.294 12.0852 118.602 12.4889 119.013 12.8269C119.412 13.1604 120.037 13.5098 120.87 13.8665C121.568 14.1528 122.084 14.3939 122.418 14.5863C122.743 14.773 122.968 14.9613 123.1 15.1454C123.225 15.328 123.291 15.5715 123.291 15.8739C123.291 16.7397 122.643 17.16 121.314 17.16C120.818 17.16 120.253 17.0574 119.637 16.855C119.026 16.6527 118.448 16.3595 117.923 15.9853L117.795 15.8927V18.8402L117.841 18.8629C118.277 19.064 118.821 19.232 119.469 19.3605C120.11 19.4973 120.695 19.5631 121.197 19.5631C122.769 19.5631 124.029 19.1908 124.942 18.4606C125.871 17.7235 126.339 16.7411 126.339 15.5391C126.339 14.6733 126.085 13.9304 125.589 13.3298C125.09 12.7342 124.234 12.1907 123.04 11.7087Z" fill="white"/>
<path d="M136.877 15.9865C136.306 16.6982 135.45 17.0589 134.335 17.0589C133.223 17.0589 132.345 16.6926 131.729 15.9665C131.104 15.2351 130.791 14.194 130.791 12.8749C130.791 11.5107 131.104 10.444 131.729 9.70253C132.345 8.96376 133.212 8.59168 134.307 8.59168C135.373 8.59168 136.215 8.94815 136.82 9.65377C137.43 10.364 137.738 11.4205 137.738 12.801C137.738 14.194 137.447 15.2697 136.877 15.9865ZM134.469 6.08496C132.351 6.08496 130.668 6.70792 129.467 7.93434C128.266 9.15589 127.656 10.8546 127.656 12.9736C127.656 14.9869 128.252 16.6056 129.422 17.7862C130.591 18.9653 132.188 19.5631 134.156 19.5631C136.215 19.5631 137.866 18.9355 139.067 17.6906C140.267 16.4488 140.872 14.7721 140.872 12.701C140.872 10.6566 140.305 9.02496 139.175 7.85437C138.051 6.67915 136.466 6.08496 134.469 6.08496Z" fill="white"/>
<path d="M157 8.86265V6.3986H153.937V2.56256L153.834 2.59426L150.957 3.47372L150.899 3.49104V6.3986H146.362V4.77841C146.362 4.02427 146.533 3.44812 146.861 3.06313C147.195 2.68374 147.666 2.49137 148.267 2.49137C148.698 2.49137 149.148 2.59133 149.596 2.7937L149.708 2.84247V0.245287L149.656 0.228218C149.237 0.0746097 148.666 0 147.953 0C147.061 0 146.251 0.192621 145.544 0.579075C144.834 0.964309 144.275 1.51291 143.884 2.21609C143.496 2.91341 143.299 3.72192 143.299 4.61773V6.39859H141.166V8.86264H143.299V19.2536H146.362V8.86264H150.9V15.4663C150.9 18.183 152.183 19.5632 154.71 19.5632C155.126 19.5632 155.568 19.5147 156.013 19.4206C156.467 19.3218 156.778 19.225 156.957 19.1195L157 19.0968V16.6057L156.877 16.69C156.712 16.7981 156.501 16.8907 156.261 16.9563C156.013 17.026 155.814 17.0589 155.654 17.0589C155.061 17.0589 154.624 16.9007 154.353 16.5872C154.074 16.2678 153.937 15.7131 153.937 14.9328V8.86266L157 8.86265Z" fill="white"/>
<path d="M20.1937 21.5656H0V1.36743H20.1937L20.1937 21.5656Z" fill="white"/>
<path d="M42.4889 21.5656H22.291V1.36743H42.4889V21.5656Z" fill="white"/>
<path d="M20.1937 43.8749H0V23.6729H20.1937L20.1937 43.8749Z" fill="white"/>
<path d="M42.4889 43.8749H22.291V23.6729H42.4889V43.8749Z" fill="white"/>
<path d="M65.7703 36.6569L63.2602 29.4447C63.1851 29.2099 63.1051 28.8315 63.0217 28.3104H62.9707C62.8944 28.7895 62.8105 29.1672 62.7179 29.4447L60.2346 36.6569H65.7703ZM71.4811 43.7051H68.1902L66.5639 39.1027H59.4526L57.8898 43.7051H54.6113L61.3825 25.6245H64.7609L71.4811 43.7051Z" fill="white"/>
<path d="M82.6539 32.0169L75.6824 41.4231H82.6286V43.7052H71.584V42.608L78.7077 33.0766H72.2645V30.7942H82.6537L82.6539 32.0169Z" fill="white"/>
<path d="M95.8553 43.705H92.9302V41.6623H92.8794C92.0302 43.2259 90.7109 44.0078 88.9208 44.0078C85.8698 44.0078 84.3438 42.1755 84.3438 38.5106V30.7944H87.2689V38.2078C87.2689 40.528 88.1639 41.6879 89.9543 41.6879C90.8201 41.6879 91.5323 41.3685 92.0912 40.7297C92.6507 40.0911 92.9302 39.2545 92.9302 38.2202V30.7942H95.8553L95.8553 43.705Z" fill="white"/>
<path d="M106.635 33.5808C106.282 33.3033 105.774 33.165 105.11 33.165C104.244 33.165 103.522 33.5554 102.942 34.3378C102.361 35.119 102.072 36.1821 102.072 37.5275V43.7052H99.1465V30.7944H102.072V33.4545H102.121C102.407 32.5467 102.846 31.8387 103.439 31.3308C104.032 30.8219 104.694 30.5676 105.425 30.5676C105.954 30.5676 106.358 30.6474 106.635 30.8073V33.5808Z" fill="white"/>
<path d="M116.066 35.9764C116.058 34.9256 115.81 34.108 115.322 33.5241C114.835 32.9401 114.163 32.6476 113.305 32.6476C112.465 32.6476 111.752 32.9548 111.168 33.5677C110.584 34.1822 110.225 34.9848 110.091 35.9767L116.066 35.9764ZM118.891 38.0441H110.09C110.123 39.2373 110.492 40.158 111.194 40.8053C111.896 41.4529 112.859 41.776 114.087 41.776C115.466 41.776 116.731 41.3646 117.882 40.5408V42.8985C116.705 43.6378 115.15 44.0079 113.218 44.0079C111.317 44.0079 109.828 43.4213 108.747 42.249C107.667 41.0765 107.127 39.4265 107.127 37.2999C107.127 35.2913 107.721 33.6543 108.911 32.3894C110.101 31.1239 111.578 30.4917 113.343 30.4917C115.108 30.4917 116.474 31.0591 117.442 32.1936C118.408 33.3286 118.891 34.9049 118.891 36.9215V38.0441Z" fill="white"/>
</svg>
